<?xml version="1.0" standalone="no"?>
<!DOCTYPE svg PUBLIC "-//W3C//DTD SVG 20010904//EN"
 "http://www.w3.org/TR/2001/REC-SVG-20010904/DTD/svg10.dtd">
<svg version="1.0" xmlns="http://www.w3.org/2000/svg"
 width="161.000000pt" height="161.000000pt" viewBox="0 0 161.000000 161.000000"
 preserveAspectRatio="xMidYMid meet">
<metadata>
Created by potrace 1.13, written by Peter Selinger 2001-2015
</metadata>
<g transform="translate(0.000000,161.000000) scale(0.100000,-0.100000)"
fill="#000000" stroke="none">
<path d="M650 1595 c-375 -75 -650 -410 -650 -790 0 -328 212 -636 516 -751
189 -71 389 -71 578 0 304 115 516 423 516 751 0 328 -212 636 -516 751 -140
53 -305 67 -444 39z m65 -333 c56 -19 57 -22 34 -130 -9 -45 -13 -52 -21 -38
-13 23 -84 55 -121 56 -32 0 -95 -30 -118 -56 -29 -33 -69 -121 -84 -186 -20
-84 -18 -144 4 -194 32 -71 113 -82 210 -28 24 13 45 24 46 24 10 0 -29 -148
-41 -157 -27 -20 -124 -36 -181 -30 -144 15 -212 119 -200 306 10 158 77 310
169 384 78 63 204 83 303 49z m568 -294 c4 -46 16 -198 27 -338 11 -140 20
-268 20 -283 l0 -28 -72 3 -73 3 -3 88 -3 88 -96 -3 -97 -3 -35 -87 -36 -88
-77 0 c-43 0 -78 2 -78 5 0 3 13 31 29 63 16 31 69 145 119 252 49 107 113
243 140 303 l51 107 89 0 89 0 6 -82z"/>
<path d="M1103 770 l-61 -145 60 -3 c33 -2 62 -1 64 1 3 2 3 69 2 148 l-3 143
-62 -144z"/>
</g>
</svg>
